<svg xmlns="http://www.w3.org/2000/svg" viewBox="0 0 126.28 101.69"><defs><style>.cls-1{isolation:isolate;}.cls-2{fill:#3d4d5c;}.cls-3{fill:#0085c3;}.cls-4{fill:#52677a;}.cls-5{mix-blend-mode:multiply;}.cls-6{fill:#f2f2f2;}.cls-7{fill:#4ecd66;}.cls-8{fill:#a6edb3;}.cls-9{fill:#0071bc;}.cls-10{fill:#36ad4c;}</style></defs><title>logov2</title><g class="cls-1"><g id="Capa_1" data-name="Capa 1"><path class="cls-2" d="M124,103.12H3.49A2.71,2.71,0,0,1,.6,100.4V98.54L13.79,73.41A4.19,4.19,0,0,1,17.54,71h92.18c1.72,0,5.51,3.49,6.28,5.08L126.88,99v.82C126.91,102.16,125.42,103.12,124,103.12Z" transform="translate(-0.6 -1.43)"/><path d="M124,100.49H3.5c-1.34,0-3.54-1.21-2.71-2.7l13-27a4.19,4.19,0,0,1,3.76-2.4h92.18A4.53,4.53,0,0,1,113.8,71l12.87,26.56C127.57,99.23,125.43,100.49,124,100.49Z" transform="translate(-0.6 -1.43)"/><rect x="13.18" width="98.65" height="64.28"/><rect class="cls-3" x="16.96" y="3.51" width="91.04" height="55.7"/><path class="cls-4" d="M81.19,99.32H45.7a.65.65,0,0,1-.63-.76l1.5-9.64a1,1,0,0,1,1-.9h32a.92.92,0,0,1,.9.81l1.37,9.7A.71.71,0,0,1,81.19,99.32Z" transform="translate(-0.6 -1.43)"/><path class="cls-4" d="M22.91,74.16H19.06c-.54,0-.91-.16-.83-.37l.23-.59c.08-.2.57-.36,1.1-.36h3.81c.53,0,.91.16.84.36l-.2.59C23.94,74,23.44,74.16,22.91,74.16Z" transform="translate(-0.6 -1.43)"/><path class="cls-4" d="M29.4,74.16H25.55c-.54,0-.92-.16-.85-.37l.2-.59c.07-.2.55-.36,1.08-.36h3.81c.53,0,.92.16.86.36l-.17.59C30.42,74,29.94,74.16,29.4,74.16Z" transform="translate(-0.6 -1.43)"/><path class="cls-4" d="M35.9,74.16H32c-.54,0-.93-.16-.87-.37l.17-.59c.06-.2.53-.36,1.06-.36h3.81c.53,0,.92.16.88.36l-.14.59C36.91,74,36.43,74.16,35.9,74.16Z" transform="translate(-0.6 -1.43)"/><path class="cls-4" d="M42.39,74.16H38.54c-.54,0-.94-.16-.89-.37l.13-.59c0-.2.51-.36,1-.36h3.81c.53,0,.93.16.9.36l-.1.59C43.39,74,42.93,74.16,42.39,74.16Z" transform="translate(-0.6 -1.43)"/><path class="cls-4" d="M48.89,74.16H45c-.54,0-.95-.16-.91-.37l.1-.59c0-.2.49-.36,1-.36h3.81c.53,0,.94.16.92.36l-.07.59C49.88,74,49.42,74.16,48.89,74.16Z" transform="translate(-0.6 -1.43)"/><path class="cls-4" d="M55.38,74.16H51.53c-.54,0-1-.16-.93-.37l.07-.59c0-.2.47-.36,1-.36h3.81c.53,0,1,.16.94.36l0,.59C56.36,74,55.92,74.16,55.38,74.16Z" transform="translate(-0.6 -1.43)"/><path class="cls-4" d="M61.88,74.16H58c-.54,0-1-.16-1-.37l0-.59c0-.2.45-.36,1-.36h3.81c.53,0,1,.16,1,.36v.59C62.85,74,62.41,74.16,61.88,74.16Z" transform="translate(-0.6 -1.43)"/><path class="cls-4" d="M68.37,74.16H64.52c-.54,0-1-.16-1-.37V73.2c0-.2.43-.36,1-.36h3.81c.53,0,1,.16,1,.36l0,.59C69.33,74,68.91,74.16,68.37,74.16Z" transform="translate(-0.6 -1.43)"/><path class="cls-4" d="M74.87,74.16H71c-.54,0-1-.16-1-.37l0-.59c0-.2.41-.36.94-.36h3.81c.53,0,1,.16,1,.36l.07.59C75.82,74,75.4,74.16,74.87,74.16Z" transform="translate(-0.6 -1.43)"/><path class="cls-4" d="M81.36,74.16H77.51c-.54,0-1-.16-1-.37l-.07-.59c0-.2.39-.36.92-.36h3.81c.53,0,1,.16,1,.36l.1.59C82.31,74,81.9,74.16,81.36,74.16Z" transform="translate(-0.6 -1.43)"/><path class="cls-4" d="M87.86,74.16H84c-.54,0-1-.16-1-.37l-.1-.59c0-.2.37-.36.9-.36h3.81c.53,0,1,.16,1,.36l.13.59C88.79,74,88.39,74.16,87.86,74.16Z" transform="translate(-0.6 -1.43)"/><path class="cls-4" d="M94.35,74.16H90.5c-.54,0-1-.16-1.06-.37l-.14-.59c0-.2.35-.36.88-.36H94c.53,0,1,.16,1.06.36l.17.59C95.28,74,94.89,74.16,94.35,74.16Z" transform="translate(-0.6 -1.43)"/><path class="cls-4" d="M100.85,74.16H97c-.54,0-1-.16-1.08-.37l-.17-.59c-.06-.2.33-.36.86-.36h3.81c.53,0,1,.16,1.08.36l.2.59C101.76,74,101.38,74.16,100.85,74.16Z" transform="translate(-0.6 -1.43)"/><path class="cls-4" d="M107.34,74.16h-3.85c-.54,0-1-.16-1.1-.37l-.21-.59c-.07-.2.31-.36.84-.36h3.81c.53,0,1,.16,1.1.36l.24.59C108.25,74,107.88,74.16,107.34,74.16Z" transform="translate(-0.6 -1.43)"/><path class="cls-4" d="M22.55,76.38H17.64c-.12,0-.21,0-.19-.09l.73-1.85s.13-.08.25-.08h4.83c.12,0,.2,0,.19.08l-.64,1.85S22.68,76.38,22.55,76.38Z" transform="translate(-0.6 -1.43)"/><path class="cls-4" d="M31.63,78.81h-5c-.12,0-.21,0-.2-.09l.6-1.93s.13-.09.25-.09h4.93c.12,0,.21,0,.2.09l-.51,1.93S31.75,78.81,31.63,78.81Z" transform="translate(-0.6 -1.43)"/><path class="cls-4" d="M32.45,81.35H27.32c-.13,0-.22,0-.2-.09l.6-2s.13-.09.25-.09h5c.13,0,.22,0,.2.09l-.51,2C32.69,81.31,32.57,81.35,32.45,81.35Z" transform="translate(-0.6 -1.43)"/><path class="cls-4" d="M35.33,84H30.09c-.13,0-.22,0-.21-.1l.56-2.1c0-.05.13-.09.26-.09h5.14c.13,0,.22,0,.21.09l-.47,2.1C35.58,84,35.46,84,35.33,84Z" transform="translate(-0.6 -1.43)"/><path class="cls-4" d="M18.81,87.07H13.47c-.14,0-.24,0-.21-.11l1-2.5c0-.06.15-.1.29-.1h5.22c.14,0,.24,0,.22.1L19.1,87C19.08,87,19,87.07,18.81,87.07Z" transform="translate(-0.6 -1.43)"/><path class="cls-4" d="M25.94,87.07H20.6c-.14,0-.24,0-.22-.11l.84-2.5c0-.06.15-.1.29-.1h5.22c.14,0,.24,0,.22.1L26.22,87C26.21,87,26.08,87.07,25.94,87.07Z" transform="translate(-0.6 -1.43)"/><path class="cls-4" d="M32.85,87.07H27.51c-.14,0-.24,0-.23-.11l.7-2.5c0-.06.14-.1.28-.1h5.22c.14,0,.24,0,.23.1L33.13,87C33.12,87,33,87.07,32.85,87.07Z" transform="translate(-0.6 -1.43)"/><path class="cls-4" d="M41.56,87.07h-7c-.16,0-.28-.06-.27-.12l.56-2.47c0-.07.16-.12.31-.12H42c.16,0,.28.05.27.12l-.41,2.47C41.86,87,41.72,87.07,41.56,87.07Z" transform="translate(-0.6 -1.43)"/><path class="cls-4" d="M84.89,87.07h-7c-.16,0-.3-.06-.31-.12l-.28-2.47c0-.07.12-.12.27-.12h6.89c.16,0,.3.05.31.12l.43,2.47C85.17,87,85,87.07,84.89,87.07Z" transform="translate(-0.6 -1.43)"/><path class="cls-4" d="M92,87.07H86.75c-.14,0-.26,0-.28-.11L86,84.47c0-.06.09-.1.23-.1H91.4c.14,0,.26,0,.27.1l.58,2.5C92.26,87,92.16,87.07,92,87.07Z" transform="translate(-0.6 -1.43)"/><path class="cls-4" d="M76.09,87.07H43.59c-.34,0-.6-.12-.58-.26l.35-2.2c0-.14.31-.25.64-.25h31.8c.33,0,.62.11.63.25l.24,2.2C76.69,87,76.43,87.07,76.09,87.07Z" transform="translate(-0.6 -1.43)"/><path class="cls-4" d="M42.13,84H36.89c-.13,0-.23,0-.22-.1l.45-2.1c0-.05.12-.09.25-.09h5.14c.13,0,.22,0,.22.09l-.35,2.1C42.37,84,42.26,84,42.13,84Z" transform="translate(-0.6 -1.43)"/><path class="cls-4" d="M48.93,84H43.7c-.13,0-.23,0-.22-.1l.33-2.1c0-.05.12-.09.25-.09h5.14c.13,0,.23,0,.22.09l-.24,2.1C49.17,84,49.06,84,48.93,84Z" transform="translate(-0.6 -1.43)"/><path class="cls-4" d="M55.73,84H50.5c-.13,0-.23,0-.23-.1l.22-2.1c0-.05.11-.09.24-.09h5.14c.13,0,.23,0,.23.09L56,83.9C56,84,55.86,84,55.73,84Z" transform="translate(-0.6 -1.43)"/><path class="cls-4" d="M62.53,84H57.3c-.13,0-.23,0-.23-.1l.1-2.1c0-.05.11-.09.24-.09h5.14c.13,0,.23,0,.23.09v2.1C62.77,84,62.66,84,62.53,84Z" transform="translate(-0.6 -1.43)"/><path class="cls-4" d="M69.33,84H64.1c-.13,0-.24,0-.24-.1v-2.1c0-.05.1-.09.23-.09h5.14c.13,0,.23,0,.24.09l.11,2.1C69.57,84,69.46,84,69.33,84Z" transform="translate(-0.6 -1.43)"/><path class="cls-4" d="M76.14,84H70.9c-.13,0-.24,0-.24-.1l-.13-2.1c0-.05.1-.09.23-.09h5.14c.13,0,.24,0,.24.09l.23,2.1C76.37,84,76.27,84,76.14,84Z" transform="translate(-0.6 -1.43)"/><path class="cls-4" d="M82.94,84H77.7c-.13,0-.24,0-.25-.1l-.25-2.1c0-.05.09-.09.22-.09h5.14c.13,0,.24,0,.25.09l.34,2.1C83.16,84,83.07,84,82.94,84Z" transform="translate(-0.6 -1.43)"/><path class="cls-4" d="M89.74,84H84.5c-.13,0-.24,0-.25-.1l-.36-2.1c0-.05.09-.09.22-.09h5.14c.13,0,.24,0,.25.09L90,83.9C90,84,89.87,84,89.74,84Z" transform="translate(-0.6 -1.43)"/><path class="cls-4" d="M98.32,87.11H94.24c-.52,0-1-.18-1-.39l-.15-.63c-.05-.21.32-.39.84-.39h4c.51,0,1,.17,1,.39l.18.63C99.21,86.94,98.84,87.11,98.32,87.11Z" transform="translate(-0.6 -1.43)"/><path class="cls-4" d="M105.31,87.11h-4.08c-.52,0-1-.18-1.06-.39l-.19-.63c-.06-.21.3-.39.82-.39h4c.51,0,1,.17,1.06.39l.22.63C106.19,86.94,105.83,87.11,105.31,87.11Z" transform="translate(-0.6 -1.43)"/><path class="cls-4" d="M104.79,85.53h-4c-.51,0-1-.17-1-.38l-.18-.62c-.06-.21.3-.38.81-.38h4c.51,0,1,.17,1,.38l.21.62C105.66,85.36,105.3,85.53,104.79,85.53Z" transform="translate(-0.6 -1.43)"/><path class="cls-4" d="M112.31,87.11h-4.08c-.52,0-1-.18-1.08-.39l-.22-.63c-.07-.21.28-.39.79-.39h4c.51,0,1,.17,1.08.39l.25.63C113.18,86.94,112.83,87.11,112.31,87.11Z" transform="translate(-0.6 -1.43)"/><path class="cls-4" d="M39.16,81.35H34c-.13,0-.22,0-.21-.09l.49-2s.12-.09.25-.09h5c.13,0,.22,0,.21.09l-.39,2C39.4,81.31,39.29,81.35,39.16,81.35Z" transform="translate(-0.6 -1.43)"/><path class="cls-4" d="M45.88,81.35H40.75c-.13,0-.22,0-.21-.09l.37-2s.12-.09.24-.09h5c.13,0,.22,0,.21.09l-.28,2C46.12,81.31,46,81.35,45.88,81.35Z" transform="translate(-0.6 -1.43)"/><path class="cls-4" d="M52.6,81.35H47.47c-.13,0-.23,0-.22-.09l.26-2s.11-.09.24-.09h5c.13,0,.22,0,.22.09l-.17,2C52.83,81.31,52.72,81.35,52.6,81.35Z" transform="translate(-0.6 -1.43)"/><path class="cls-4" d="M59.27,81.35H54.15c-.13,0-.23,0-.22-.09l.15-2s.11-.09.23-.09h5c.13,0,.23,0,.22.09l-.06,2C59.5,81.31,59.4,81.35,59.27,81.35Z" transform="translate(-0.6 -1.43)"/><path class="cls-4" d="M66,81.35H60.86c-.13,0-.23,0-.23-.09l0-2s.1-.09.23-.09h5c.13,0,.23,0,.23.09l.05,2C66.22,81.31,66.12,81.35,66,81.35Z" transform="translate(-0.6 -1.43)"/><path class="cls-4" d="M72.42,81.35H67.29c-.13,0-.23,0-.23-.09l-.07-2s.1-.09.22-.09h5c.13,0,.23,0,.23.09l.16,2C72.65,81.31,72.55,81.35,72.42,81.35Z" transform="translate(-0.6 -1.43)"/><path class="cls-4" d="M79.07,81.35H73.95c-.13,0-.23,0-.24-.09l-.18-2s.09-.09.22-.09h5c.13,0,.23,0,.24.09l.27,2C79.3,81.31,79.2,81.35,79.07,81.35Z" transform="translate(-0.6 -1.43)"/><path class="cls-4" d="M85.73,81.35H80.6c-.13,0-.24,0-.24-.09l-.29-2s.09-.09.21-.09h5c.13,0,.23,0,.24.09l.38,2C86,81.31,85.86,81.35,85.73,81.35Z" transform="translate(-0.6 -1.43)"/><path class="cls-4" d="M92.34,81.35H87.22c-.13,0-.24,0-.25-.09l-.4-2s.08-.09.21-.09h5c.13,0,.24,0,.25.09l.49,2C92.56,81.31,92.47,81.35,92.34,81.35Z" transform="translate(-0.6 -1.43)"/><path class="cls-4" d="M99,81.35H93.83c-.13,0-.24,0-.25-.09l-.51-2s.08-.09.2-.09h5c.13,0,.24,0,.25.09l.6,2C99.17,81.31,99.08,81.35,99,81.35Z" transform="translate(-0.6 -1.43)"/><path class="cls-4" d="M96.47,84H91.23c-.13,0-.25,0-.26-.1l-.48-2.1c0-.05.08-.09.21-.09h5.14c.13,0,.24,0,.26.09l.57,2.1C96.7,84,96.6,84,96.47,84Z" transform="translate(-0.6 -1.43)"/><path class="cls-4" d="M110.67,81.35h-9.9c-.18,0-.33-.06-.36-.13l-.6-1.95c0-.07.1-.12.27-.12h9.72c.17,0,.33.05.36.12l.77,1.95C111,81.29,110.85,81.35,110.67,81.35Z" transform="translate(-0.6 -1.43)"/><path class="cls-4" d="M111.67,84H98.11c-.21,0-.39-.07-.42-.15l-.56-2c0-.08.12-.15.33-.15h13.31c.2,0,.39.07.43.15l.79,2C112,83.93,111.87,84,111.67,84Z" transform="translate(-0.6 -1.43)"/><path class="cls-4" d="M25.78,81.35h-10c-.18,0-.3-.06-.27-.13l.76-1.95c0-.07.19-.12.36-.12h9.82c.17,0,.3.06.28.12l-.59,1.95C26.12,81.29,26,81.35,25.78,81.35Z" transform="translate(-0.6 -1.43)"/><path class="cls-4" d="M28.45,84H14.69c-.21,0-.35-.07-.32-.15l.78-2c0-.08.22-.15.43-.15h13.5c.2,0,.35.07.33.15l-.55,2C28.84,83.93,28.65,84,28.45,84Z" transform="translate(-0.6 -1.43)"/><path class="cls-4" d="M38.17,78.81h-5c-.12,0-.22,0-.2-.09l.49-1.93s.12-.09.24-.09h4.93c.12,0,.21,0,.2.09l-.4,1.93S38.29,78.81,38.17,78.81Z" transform="translate(-0.6 -1.43)"/><path class="cls-4" d="M44.67,78.81h-5c-.12,0-.22,0-.21-.09l.38-1.93s.12-.09.24-.09H45c.12,0,.22,0,.21.09l-.3,1.93S44.8,78.81,44.67,78.81Z" transform="translate(-0.6 -1.43)"/><path class="cls-4" d="M51.21,78.81h-5c-.12,0-.22,0-.21-.09l.28-1.93s.11-.09.23-.09h4.93c.12,0,.22,0,.21.09l-.19,1.93S51.34,78.81,51.21,78.81Z" transform="translate(-0.6 -1.43)"/><path class="cls-4" d="M57.76,78.81h-5c-.12,0-.22,0-.22-.09l.17-1.93s.11-.09.23-.09h4.93c.12,0,.22,0,.22.09L58,78.72S57.88,78.81,57.76,78.81Z" transform="translate(-0.6 -1.43)"/><path class="cls-4" d="M64.26,78.81h-5c-.12,0-.22,0-.22-.09l.07-1.93s.1-.09.23-.09h4.93c.12,0,.22,0,.22.09l0,1.93S64.38,78.81,64.26,78.81Z" transform="translate(-0.6 -1.43)"/><path class="cls-4" d="M70.61,78.81h-5c-.12,0-.23,0-.23-.09l0-1.93s.1-.09.22-.09h4.93c.12,0,.22,0,.23.09l.13,1.93S70.74,78.81,70.61,78.81Z" transform="translate(-0.6 -1.43)"/><path class="cls-4" d="M77.21,78.81h-5c-.12,0-.23,0-.23-.09l-.15-1.93s.09-.09.22-.09H77c.12,0,.23,0,.23.09l.23,1.93S77.33,78.81,77.21,78.81Z" transform="translate(-0.6 -1.43)"/><path class="cls-4" d="M83.72,78.81h-5c-.12,0-.23,0-.24-.09l-.25-1.93s.09-.09.21-.09h4.93c.12,0,.23,0,.24.09l.34,1.93S83.85,78.81,83.72,78.81Z" transform="translate(-0.6 -1.43)"/><path class="cls-4" d="M90.13,78.81h-5c-.12,0-.23,0-.24-.09l-.36-1.93s.08-.09.21-.09h4.93c.12,0,.23,0,.24.09l.45,1.93S90.26,78.81,90.13,78.81Z" transform="translate(-0.6 -1.43)"/><path class="cls-4" d="M96.81,78.81h-5c-.12,0-.24,0-.25-.09l-.47-1.93s.08-.09.2-.09h4.93c.12,0,.23,0,.25.09L97,78.72S96.93,78.81,96.81,78.81Z" transform="translate(-0.6 -1.43)"/><path class="cls-4" d="M103.19,78.81h-5c-.12,0-.24,0-.25-.09l-.57-1.93s.07-.09.2-.09h4.93c.12,0,.24,0,.25.09l.66,1.93S103.32,78.81,103.19,78.81Z" transform="translate(-0.6 -1.43)"/><path class="cls-4" d="M109.76,78.81h-5c-.12,0-.24,0-.26-.09l-.68-1.93s.07-.09.19-.09h4.93c.12,0,.24,0,.26.09l.77,1.93S109.88,78.81,109.76,78.81Z" transform="translate(-0.6 -1.43)"/><path class="cls-4" d="M29.05,76.38H24.14c-.12,0-.21,0-.19-.09l.62-1.85s.13-.08.25-.08h4.83c.12,0,.21,0,.19.08l-.54,1.85S29.18,76.38,29.05,76.38Z" transform="translate(-0.6 -1.43)"/><path class="cls-4" d="M35.36,76.38H30.44c-.12,0-.21,0-.2-.09l.52-1.85s.12-.08.24-.08h4.83c.12,0,.21,0,.2.08l-.44,1.85S35.48,76.38,35.36,76.38Z" transform="translate(-0.6 -1.43)"/><path class="cls-4" d="M41.82,76.38H36.9c-.12,0-.21,0-.2-.09l.42-1.85s.12-.08.24-.08h4.83c.12,0,.21,0,.2.08l-.34,1.85S41.94,76.38,41.82,76.38Z" transform="translate(-0.6 -1.43)"/><path class="cls-4" d="M48.12,76.38H43.2c-.12,0-.22,0-.21-.09l.32-1.85s.11-.08.23-.08h4.83c.12,0,.21,0,.21.08l-.23,1.85S48.24,76.38,48.12,76.38Z" transform="translate(-0.6 -1.43)"/><path class="cls-4" d="M54.61,76.38H49.7c-.12,0-.22,0-.21-.09l.22-1.85s.11-.08.23-.08h4.83c.12,0,.22,0,.21.08l-.13,1.85S54.74,76.38,54.61,76.38Z" transform="translate(-0.6 -1.43)"/><path class="cls-4" d="M60.86,76.38H55.94c-.12,0-.22,0-.22-.09l.12-1.85s.1-.08.22-.08H60.9c.12,0,.22,0,.22.08l0,1.85S61,76.38,60.86,76.38Z" transform="translate(-0.6 -1.43)"/><path class="cls-4" d="M67.34,76.38H62.43c-.12,0-.22,0-.22-.09V74.44s.1-.08.22-.08h4.83c.12,0,.22,0,.22.08l.07,1.85S67.47,76.38,67.34,76.38Z" transform="translate(-0.6 -1.43)"/><path class="cls-4" d="M73.65,76.38H68.73c-.12,0-.22,0-.23-.09l-.09-1.85s.09-.08.21-.08h4.83c.12,0,.22,0,.23.08l.17,1.85S73.77,76.38,73.65,76.38Z" transform="translate(-0.6 -1.43)"/><path class="cls-4" d="M80.12,76.38H75.21c-.12,0-.23,0-.23-.09l-.19-1.85s.09-.08.21-.08h4.83c.12,0,.22,0,.23.08l.28,1.85S80.24,76.38,80.12,76.38Z" transform="translate(-0.6 -1.43)"/><path class="cls-4" d="M86.58,76.38H81.67c-.12,0-.23,0-.24-.09l-.29-1.85s.08-.08.2-.08h4.83c.12,0,.23,0,.23.08l.38,1.85S86.7,76.38,86.58,76.38Z" transform="translate(-0.6 -1.43)"/><path class="cls-4" d="M93,76.38H88.06c-.12,0-.23,0-.24-.09l-.4-1.85s.08-.08.2-.08h4.83c.12,0,.23,0,.24.08l.48,1.85S93.1,76.38,93,76.38Z" transform="translate(-0.6 -1.43)"/><path class="cls-4" d="M99.12,76.38H94.21c-.12,0-.23,0-.24-.09l-.49-1.85s.08-.08.2-.08h4.83c.12,0,.23,0,.24.08l.58,1.85S99.25,76.38,99.12,76.38Z" transform="translate(-0.6 -1.43)"/><path class="cls-4" d="M108.33,76.38H101c-.34,0-.65-.11-.69-.24l-.5-1.56c0-.13.2-.23.53-.23h7.22c.33,0,.65.1.7.23l.62,1.56C108.91,76.27,108.67,76.38,108.33,76.38Z" transform="translate(-0.6 -1.43)"/><path class="cls-4" d="M24.59,78.81h-7.5c-.35,0-.59-.11-.53-.25l.64-1.62c.05-.13.37-.24.71-.24h7.37c.34,0,.58.11.54.24l-.52,1.62C25.26,78.7,24.94,78.81,24.59,78.81Z" transform="translate(-0.6 -1.43)"/><rect x="19.85" y="64.29" width="14.65" height="2.65"/><rect x="90.33" y="64.25" width="14.65" height="2.7"/><g class="cls-5"><ellipse class="cls-6" cx="62.2" cy="32.03" rx="26.92" ry="25.45"/></g><ellipse class="cls-7" cx="62.2" cy="30.51" rx="26.92" ry="25.45"/><g class="cls-5"><ellipse class="cls-6" cx="62.2" cy="31.63" rx="23.71" ry="22.42"/></g><ellipse class="cls-8" cx="62.2" cy="30.4" rx="22.53" ry="21.3"/><g class="cls-5"><ellipse class="cls-6" cx="62.2" cy="31.32" rx="19.97" ry="18.88"/></g><ellipse class="cls-9" cx="62.2" cy="30.4" rx="19.97" ry="18.88"/><polygon class="cls-10" points="61.34 37.28 63.16 41.26 72.32 41.26 67.45 33.29 63.16 33.29 61.34 37.28"/><polygon class="cls-7" points="58.98 37.28 60.81 33.29 56.95 33.29 47.21 33.29 52.08 41.26 60.81 41.26 58.98 37.28"/><polygon class="cls-10" points="56.35 26.29 51.79 25.8 47.21 33.29 56.95 33.29 59.09 29.78 56.35 26.29"/><polygon class="cls-7" points="57.53 24.36 60.27 27.85 62.2 24.69 67.07 16.72 57.33 16.72 52.97 23.87 57.53 24.36"/><polygon class="cls-10" points="68.91 27.71 71.64 24.21 67.07 16.72 62.2 24.69 64.34 28.2 68.91 27.71"/><polygon class="cls-7" points="70.09 29.64 65.52 30.13 67.45 33.29 72.32 41.26 77.19 33.29 72.82 26.14 70.09 29.64"/></g></g></svg>